<?xml version="1.0" encoding="utf-8"?>
<!-- Generator: Adobe Illustrator 16.0.0, SVG Export Plug-In . SVG Version: 6.00 Build 0)  -->
<!DOCTYPE svg PUBLIC "-//W3C//DTD SVG 1.1//EN" "http://www.w3.org/Graphics/SVG/1.1/DTD/svg11.dtd">
<svg version="1.1" id="圖層_1" xmlns="http://www.w3.org/2000/svg" xmlns:xlink="http://www.w3.org/1999/xlink" x="0px" y="0px"
	 width="200px" height="100px" viewBox="0 0 200 100" enable-background="new 0 0 200 100" xml:space="preserve">
<g>
	<path fill="none" d="M143.697,54.188c-1.363-1.4-1.289-6.086-1.051-9.341l-1.249,3.958c0,0,0,2.082-3.104,3.203
		c-3.103,1.121-5.688,2.084-5.688,2.084v3.966h12.242c-0.543-0.453-1.329-1.943-1.329-1.943L143.697,54.188z"/>
	<polygon fill="none" points="116.431,77.306 126.656,77.306 128.861,67.679 116.431,67.679 	"/>
	<polygon fill="none" points="101.797,77.306 111.417,77.306 111.417,67.679 99.39,67.679 	"/>
	<polygon fill="none" points="142.896,64.733 144.3,60.852 84.151,60.852 85.355,64.733 	"/>
	<path fill="none" d="M129.444,93.138c2.754,0,4.813-1.23,4.813-2.329c0-1.098-2.059-2.327-4.813-2.327
		c-2.755,0-4.813,1.229-4.813,2.327C124.632,91.907,126.689,93.138,129.444,93.138z"/>
	<path fill="none" d="M98.008,93.138c2.754,0,4.813-1.23,4.813-2.329c0-1.098-2.06-2.327-4.813-2.327
		c-2.754,0-4.812,1.229-4.812,2.327C93.196,91.907,95.253,93.138,98.008,93.138z"/>
	<polygon fill="none" points="86.558,67.679 89.366,77.306 96.985,77.306 94.579,67.679 	"/>
	<polygon fill="none" points="131.067,77.306 138.685,77.306 141.691,67.679 133.474,67.679 	"/>
	<path fill="none" d="M165.619,42.973c0,0,0,0,1.439-0.948c1.436-0.948,0-1.739,0-1.739l-1.439-2.052
		C163.642,43.446,165.619,42.973,165.619,42.973z"/>
	<path fill="none" d="M147.292,47.079c-0.856,1.565-0.496,3.214-0.215,4.04c0.104-0.119,0.225-0.233,0.372-0.342
		c0.231-1.296,0.666-3.684,0.921-4.805c0.359-1.58,0-6.317,0-6.317C147.111,40.129,147.292,47.079,147.292,47.079z"/>
	<path fill="none" d="M181.685,53.422c-0.143-0.222-1.431-4.764-1.859-6.757c-0.43-1.995-1.433-0.333-1.433-0.333l0.146,2.326
		c3.433,4.875,0.857,8.864,0.857,8.864c-0.143,0.605-0.27,1.175-0.384,1.708h3.673c-0.191-1.18-0.284-2.152-0.284-2.152
		S181.827,53.643,181.685,53.422z"/>
	<path fill="#ED7C5D" d="M183.688,56.967c0,0-1.573-12.851-2.719-14.511l0.144-2.881l1.145-0.665l-0.287-9.416
		c0,0,0.979-8.628-1.573-8.974c0,0-3.862-2.88-5.295,4.763c0,0-0.572,4.654-1.001,7.423l0.856,0.554c0,0-0.57,0.775-0.856,3.102
		c0,0-2.288,5.428,0,7.753c0,0,0.397,1.219-1.017,3.102c0,0,0.014,4.099-0.987,4.653c0,0,0.859,2.99-1.288,3.102v1.994h-1.143
		l-1.777,2.263h11.122c0.114-0.533,0.241-1.103,0.384-1.708c0,0,2.575-3.989-0.857-8.864l-0.146-2.326c0,0,1.003-1.662,1.433,0.333
		c0.429,1.993,1.717,6.536,1.859,6.757c0.143,0.221,0.716,3.655,0.716,3.655s0.093,0.973,0.284,2.152h2.258
		C184.77,58.69,184.426,58.015,183.688,56.967z"/>
	<path fill="#E61F19" d="M185.263,61.288c-0.166-0.835-0.082-1.316-0.32-2.059h-2.258c0.287,1.778,0.803,4.03,1.577,4.163
		C184.262,63.393,185.55,62.729,185.263,61.288z"/>
	<path fill="#E61F19" d="M165.23,62.616c0,0-2.147,4.543,1.573,5.54c3.722,0.995,7.154,2.88,7.154,2.88s0.572,3.324,1.145,3.877
		c0,0,1.575,11.967-1.145,17.949l-0.285,1.329c0,0-3.576,2.104,0.857,2.88c0,0,0.858,0.11,0.858-1.773l1.289-1.993
		c0,0,1.573-2.361,0.857,3.769l0.857-4.988c0,0,1.381-1.313-0.857-2.991c0,0,1.574-11.188,0.572-15.289l1.431,0.334
		c0,0,1.861,6.425,2.146-1.773l-2.575-2.548l-0.428-1.108l3.003-0.11c0,0-1.431,0-3.434-1.439c0,0-0.873-0.389,0.761-7.93H167.89
		L165.23,62.616z"/>
	<polygon fill="#E61F19" points="184.403,73.362 193.133,85.659 200,73.694 191.129,61.731 	"/>
	<path fill="#ED7C5D" d="M165.081,55.608v-7.74l5.749-3.476c0,0,3.416-0.946,0-6.476l-1.615-3.791c0,0-0.54-5.687-3.776-6.319
		c0,0-3.951-0.789-5.212-3c0,0-0.717-0.317,0.182-2.054c0,0,1.797-2.685,1.976-4.107c0.182-1.422,1.799-6.95-5.749-6.003
		c0,0-4.131,0-3.592,6.003c0,0-0.05,3.159,1.772,4.896c0,0-2.491,2.37-6.625,3.317c0,0-2.697-1.263-3.773,6.002l-1.18,7.135
		c-0.301-0.404-0.799-0.743-1.634-0.802c-2.274-0.161-3.103,1.601-3.103,1.601l-2.689,8.009l-5.175,1.602h-9.101
		c-3.519,0-4.761,1.762-4.761,1.762l-7.086,5.89h-27.14c-2.415,0-3.269,0.556-3.48,1.172h85.8l0.212-3.115V55.608z M132.605,58.058
		v-3.966c0,0,2.586-0.963,5.688-2.084c3.104-1.121,3.104-3.203,3.104-3.203l1.249-3.958c-0.238,3.254-0.313,7.94,1.051,9.341
		l-0.179,1.927c0,0,0.786,1.49,1.329,1.943H132.605z M148.37,45.973c-0.255,1.121-0.689,3.509-0.921,4.805
		c-0.147,0.109-0.269,0.223-0.372,0.342c-0.281-0.826-0.642-2.475,0.215-4.04c0,0-0.181-6.95,1.078-7.424
		C148.37,39.655,148.729,44.393,148.37,45.973z M165.619,38.233l1.439,2.052c0,0,1.436,0.791,0,1.739
		c-1.439,0.948-1.439,0.948-1.439,0.948S163.642,43.446,165.619,38.233z"/>
	<path fill="#E61F19" d="M79.542,60.852c0,0,4.21,13.35,5.212,16.765c1.001,3.413,3.81,2.483,3.81,2.483h49.32l-1.004,2.019H89.767
		c0,0-2.808,0.31-2.808,1.707c0,1.396,3.208,1.396,3.208,1.396s3.157,0,7.841,0c8.662,0,22.556,0,31.437,0c4.033,0,7.034,0,8.039,0
		c4.41,0,4.208-2.174,4.208-2.174l6.236-19.938c0.276,5.417,0.615,13.61,0.263,15.88c0,0,0.967,4.578,1.382,5.527
		c0,0,0.595,3.161,0.954,3.635s-0.18,1.896-0.18,1.896l-0.774,2.053c0,0-1.023,3.315,2.213,3.634
		c3.234,0.315,2.693-3.478,2.693-3.478l0.183-12.637l0.18-5.37l0.179-4.422l0.898-6.952c0,0,0.717,3.635,0.717,6.004
		c0,2.37,0,8.372,0,8.372v11.214l-0.898,3.004v4.283c0,0,0.719,1.401,3.953,1.561c3.235,0.158,4.493-1.422,1.079-3.002v-2.055
		l2.03-7.106c0,0,2.282-4.422,1.022-10.426l1.048-15.494h-85.8C78.808,59.994,79.542,60.852,79.542,60.852z M89.366,77.306
		l-2.808-9.627h8.021l2.406,9.627H89.366z M111.417,77.306h-9.62l-2.407-9.627h12.027V77.306z M126.656,77.306h-10.226v-9.627
		h12.431L126.656,77.306z M138.685,77.306h-7.617l2.406-9.627h8.218L138.685,77.306z M144.3,60.852l-1.404,3.882H85.355
		l-1.204-3.882H144.3z"/>
	<path fill="#ED7C5D" d="M125.878,48.805c3.771,0,6.831-2.367,6.831-5.284c0-2.92-3.06-5.287-6.831-5.287
		c-3.77,0-6.824,2.367-6.824,5.287C119.054,46.438,122.108,48.805,125.878,48.805z"/>
	<path fill="#E61F19" d="M88.986,90.809c0,3.086,4.04,5.589,9.022,5.589c4.983,0,9.023-2.503,9.023-5.589
		c0-3.085-4.04-5.588-9.023-5.588C93.025,85.221,88.986,87.724,88.986,90.809z M98.008,88.481c2.754,0,4.813,1.229,4.813,2.327
		c0,1.099-2.06,2.329-4.813,2.329c-2.754,0-4.812-1.23-4.812-2.329C93.196,89.711,95.253,88.481,98.008,88.481z"/>
	<path fill="#E61F19" d="M120.423,90.809c0,3.086,4.038,5.589,9.021,5.589c4.982,0,9.022-2.503,9.022-5.589
		c0-3.085-4.04-5.588-9.022-5.588C124.461,85.221,120.423,87.724,120.423,90.809z M129.444,88.481c2.754,0,4.813,1.229,4.813,2.327
		c0,1.099-2.059,2.329-4.813,2.329c-2.755,0-4.813-1.23-4.813-2.329C124.632,89.711,126.689,88.481,129.444,88.481z"/>
</g>
<g>
	
		<linearGradient id="SVGID_1_" gradientUnits="userSpaceOnUse" x1="34.2524" y1="55.1963" x2="75.7271" y2="55.1963" gradientTransform="matrix(0.8987 -0.1106 0.1011 0.865 -1.2046 17.3833)">
		<stop  offset="0" style="stop-color:#E61F19"/>
		<stop  offset="0.1803" style="stop-color:#E6241D"/>
		<stop  offset="0.4079" style="stop-color:#E83428"/>
		<stop  offset="0.661" style="stop-color:#EA4E3B"/>
		<stop  offset="0.9307" style="stop-color:#EC7255"/>
		<stop  offset="1" style="stop-color:#ED7C5D"/>
	</linearGradient>
	<path fill="none" stroke="url(#SVGID_1_)" stroke-width="4" stroke-miterlimit="10" d="M37.776,58.347c0,0,3.7,0.821,11.559-2.299
		c7.859-3.121,17.832-6.274,17.832-6.274s6.025,5.425,1.789,8.995l-26.448,9.155L37.776,58.347z"/>
	
		<linearGradient id="SVGID_2_" gradientUnits="userSpaceOnUse" x1="48.4834" y1="56.3496" x2="53.272" y2="56.3496" gradientTransform="matrix(0.8987 -0.1106 0.1011 0.865 -1.2046 17.3833)">
		<stop  offset="0" style="stop-color:#E61F19"/>
		<stop  offset="0.1803" style="stop-color:#E6241D"/>
		<stop  offset="0.4079" style="stop-color:#E83428"/>
		<stop  offset="0.661" style="stop-color:#EA4E3B"/>
		<stop  offset="0.9307" style="stop-color:#EC7255"/>
		<stop  offset="1" style="stop-color:#ED7C5D"/>
	</linearGradient>
	
		<line fill="none" stroke="url(#SVGID_2_)" stroke-width="4" stroke-miterlimit="10" x1="49.335" y1="56.048" x2="51.105" y2="64.947"/>
	
		<linearGradient id="SVGID_3_" gradientUnits="userSpaceOnUse" x1="57.145" y1="54.3076" x2="61.9482" y2="54.3076" gradientTransform="matrix(0.8987 -0.1106 0.1011 0.865 -1.2046 17.3833)">
		<stop  offset="0" style="stop-color:#E61F19"/>
		<stop  offset="0.1803" style="stop-color:#E6241D"/>
		<stop  offset="0.4079" style="stop-color:#E83428"/>
		<stop  offset="0.661" style="stop-color:#EA4E3B"/>
		<stop  offset="0.9307" style="stop-color:#EC7255"/>
		<stop  offset="1" style="stop-color:#ED7C5D"/>
	</linearGradient>
	
		<line fill="none" stroke="url(#SVGID_3_)" stroke-width="4" stroke-miterlimit="10" x1="56.902" y1="53.228" x2="58.708" y2="62.316"/>
	
		<linearGradient id="SVGID_4_" gradientUnits="userSpaceOnUse" x1="43.5698" y1="75.9844" x2="77.7461" y2="75.9844" gradientTransform="matrix(0.8987 -0.1106 0.1011 0.865 -1.2046 17.3833)">
		<stop  offset="0" style="stop-color:#E61F19"/>
		<stop  offset="0.1803" style="stop-color:#E6241D"/>
		<stop  offset="0.4079" style="stop-color:#E83428"/>
		<stop  offset="0.661" style="stop-color:#EA4E3B"/>
		<stop  offset="0.9307" style="stop-color:#EC7255"/>
		<stop  offset="1" style="stop-color:#ED7C5D"/>
	</linearGradient>
	<path fill="none" stroke="url(#SVGID_4_)" stroke-width="4" stroke-miterlimit="10" d="M46.874,72.112
		c2.039-0.406,8.158-1.624,8.158-1.624l8.258-4.681l5.728,0.381l5.703,10.514c0,0-0.232,2.776-5.447,4.98
		c-5.215,2.209-19.268,6.173-19.268,6.173L46.874,72.112z"/>
	
		<linearGradient id="SVGID_5_" gradientUnits="userSpaceOnUse" x1="45.7026" y1="71.9951" x2="72.5142" y2="71.9951" gradientTransform="matrix(0.8987 -0.1106 0.1011 0.865 -1.2046 17.3833)">
		<stop  offset="0" style="stop-color:#E61F19"/>
		<stop  offset="0.1803" style="stop-color:#E6241D"/>
		<stop  offset="0.4079" style="stop-color:#E83428"/>
		<stop  offset="0.661" style="stop-color:#EA4E3B"/>
		<stop  offset="0.9307" style="stop-color:#EC7255"/>
		<stop  offset="1" style="stop-color:#ED7C5D"/>
	</linearGradient>
	
		<line fill="none" stroke="url(#SVGID_5_)" stroke-width="4" stroke-miterlimit="10" x1="47.917" y1="77.353" x2="70.482" y2="68.888"/>
	
		<linearGradient id="SVGID_6_" gradientUnits="userSpaceOnUse" x1="46.3716" y1="77.125" x2="72.9238" y2="77.125" gradientTransform="matrix(0.8987 -0.1106 0.1011 0.865 -1.2046 17.3833)">
		<stop  offset="0" style="stop-color:#E61F19"/>
		<stop  offset="0.1803" style="stop-color:#E6241D"/>
		<stop  offset="0.4079" style="stop-color:#E83428"/>
		<stop  offset="0.661" style="stop-color:#EA4E3B"/>
		<stop  offset="0.9307" style="stop-color:#EC7255"/>
		<stop  offset="1" style="stop-color:#ED7C5D"/>
	</linearGradient>
	<polyline fill="none" stroke="url(#SVGID_6_)" stroke-width="4" stroke-miterlimit="10" points="48.663,81.107 54.102,80.023 
		71.475,73.881 	"/>
	
		<linearGradient id="SVGID_7_" gradientUnits="userSpaceOnUse" x1="53.8481" y1="93.2695" x2="60.021" y2="93.2695" gradientTransform="matrix(0.8987 -0.1106 0.1011 0.865 -1.2046 17.3833)">
		<stop  offset="0" style="stop-color:#E61F19"/>
		<stop  offset="0.1803" style="stop-color:#E6241D"/>
		<stop  offset="0.4079" style="stop-color:#E83428"/>
		<stop  offset="0.661" style="stop-color:#EA4E3B"/>
		<stop  offset="0.9307" style="stop-color:#EC7255"/>
		<stop  offset="1" style="stop-color:#ED7C5D"/>
	</linearGradient>
	
		<line fill="none" stroke="url(#SVGID_7_)" stroke-width="4" stroke-miterlimit="10" x1="59.573" y1="84.645" x2="59.223" y2="98.88"/>
	
		<linearGradient id="SVGID_8_" gradientUnits="userSpaceOnUse" x1="65.2734" y1="89.9443" x2="74.1025" y2="89.9443" gradientTransform="matrix(0.8987 -0.1106 0.1011 0.865 -1.2046 17.3833)">
		<stop  offset="0" style="stop-color:#E61F19"/>
		<stop  offset="0.1803" style="stop-color:#E6241D"/>
		<stop  offset="0.4079" style="stop-color:#E83428"/>
		<stop  offset="0.661" style="stop-color:#EA4E3B"/>
		<stop  offset="0.9307" style="stop-color:#EC7255"/>
		<stop  offset="1" style="stop-color:#ED7C5D"/>
	</linearGradient>
	
		<line fill="none" stroke="url(#SVGID_8_)" stroke-width="4" stroke-miterlimit="10" x1="67.563" y1="82.023" x2="73.484" y2="92.928"/>
</g>
<g>
	<g>
		
			<linearGradient id="SVGID_9_" gradientUnits="userSpaceOnUse" x1="130.6494" y1="65.2773" x2="17.8833" y2="51.055" gradientTransform="matrix(0.9991 0.0417 -0.0417 0.9991 1.3525 -3.2715)">
			<stop  offset="0" style="stop-color:#E29699"/>
			<stop  offset="1" style="stop-color:#E50012"/>
		</linearGradient>
		<linearGradient id="SVGID_10_" gradientUnits="userSpaceOnUse" x1="12.8018" y1="49.3799" x2="33.4692" y2="49.3799">
			<stop  offset="0" style="stop-color:#E61F19"/>
			<stop  offset="0.1803" style="stop-color:#E6241D"/>
			<stop  offset="0.4079" style="stop-color:#E83428"/>
			<stop  offset="0.661" style="stop-color:#EA4E3B"/>
			<stop  offset="0.9307" style="stop-color:#EC7255"/>
			<stop  offset="1" style="stop-color:#ED7C5D"/>
		</linearGradient>
		<path fill="url(#SVGID_9_)" stroke="url(#SVGID_10_)" stroke-miterlimit="10" d="M24.958,50.897
			c0.906,0.342,0.682,0.905,0.463,1.1c-0.218,0.196-0.407,0.265-0.599,0.516c-0.522,0.686,0.14,1.165,0.887,1.446
			c1.28,0.48,3.356-0.083,4.345-1.379c0.988-1.297,0.913-3.086-1.487-3.987c-1.279-0.482-3.103-0.612-5.618,0.528
			c-1.785,0.813-4.351,1.749-7.017,0.747c-2.187-0.822-3.572-2.874-1.87-5.105c1.648-2.163,4.573-2.128,5.479-1.788
			c0.692,0.261,0.951,0.821,0.594,1.289c-0.164,0.216-0.706,0.478-1.187,0.389c-0.616-0.094-2.173-0.029-2.888,0.907
			c-0.879,1.152-0.307,2.202,1.08,2.721c1.013,0.382,1.9,0.299,4.278-0.661c2.893-1.183,5.345-1.791,8.064-0.769
			c3.306,1.244,4.549,3.75,2.462,6.485c-1.565,2.053-4.753,3.265-7.419,2.264c-2.24-0.843-2.988-2.559-1.944-3.929
			C23.077,51.025,23.891,50.497,24.958,50.897z"/>
		
			<linearGradient id="SVGID_11_" gradientUnits="userSpaceOnUse" x1="132.583" y1="49.7456" x2="20.8955" y2="35.6593" gradientTransform="matrix(0.9991 0.0417 -0.0417 0.9991 1.3525 -3.2715)">
			<stop  offset="0" style="stop-color:#E29699"/>
			<stop  offset="1" style="stop-color:#E50012"/>
		</linearGradient>
		<linearGradient id="SVGID_12_" gradientUnits="userSpaceOnUse" x1="12.521" y1="34.2734" x2="45.0137" y2="34.2734">
			<stop  offset="0" style="stop-color:#E61F19"/>
			<stop  offset="0.1803" style="stop-color:#E6241D"/>
			<stop  offset="0.4079" style="stop-color:#E83428"/>
			<stop  offset="0.661" style="stop-color:#EA4E3B"/>
			<stop  offset="0.9307" style="stop-color:#EC7255"/>
			<stop  offset="1" style="stop-color:#ED7C5D"/>
		</linearGradient>
		<path fill="url(#SVGID_11_)" stroke="url(#SVGID_12_)" stroke-miterlimit="10" d="M35.808,46.194
			c-1.606-0.628-2.582-1.063-4.146-1.93c-5.218-2.888-10.447-6.979-12.072-8.399c-0.209,0.249-0.613,0.598-0.943,0.884
			c-0.661,0.571-1.384,1.265-2.475,0.661c-0.57-0.314-0.677-0.896-0.179-1.192l0.697-0.604c0.477-0.413,0.943-0.883,1.253-1.286
			c-3.56-3.584-6.645-8.52-3.819-10.966c1.578-1.367,3.729-1.479,5.673-0.402c3.843,2.126,3.621,7.367,1.137,11.201
			c1.377,1.23,4.158,3.603,8.272,6.504c-3.643-3.578-4.299-7.117-2.316-8.833c2.898-2.51,7.917,0.215,9.956,1.344
			c3.938,2.179,7.057,4.998,7.374,5.331c0.364,0.357,0.403,0.795,0.036,1.113c-0.477,0.413-1.366,0.442-1.888,0.153
			c-0.095-0.052-0.153-0.137-0.248-0.189c-1.177-1.067-3.89-3.297-6.926-4.978c-3.605-1.995-5.316-2.265-6.233-1.47
			c-2.385,2.065,2.417,9.15,8.197,11.62c0.643,0.251,0.75,0.831,0.273,1.245C37.029,46.349,36.356,46.394,35.808,46.194z
			 M19.22,32.483c1.581-3.187,1.289-6.838-1.037-8.125c-0.711-0.394-1.49-0.46-2.15,0.111C14.711,25.614,15.898,29.03,19.22,32.483z
			"/>
		
			<linearGradient id="SVGID_13_" gradientUnits="userSpaceOnUse" x1="134.5781" y1="39.999" x2="22.8374" y2="25.906" gradientTransform="matrix(0.9991 0.0417 -0.0417 0.9991 1.3525 -3.2715)">
			<stop  offset="0" style="stop-color:#E29699"/>
			<stop  offset="1" style="stop-color:#E50012"/>
		</linearGradient>
		<linearGradient id="SVGID_14_" gradientUnits="userSpaceOnUse" x1="39.373" y1="27.7656" x2="57.0503" y2="27.7656">
			<stop  offset="0" style="stop-color:#E61F19"/>
			<stop  offset="0.1803" style="stop-color:#E6241D"/>
			<stop  offset="0.4079" style="stop-color:#E83428"/>
			<stop  offset="0.661" style="stop-color:#EA4E3B"/>
			<stop  offset="0.9307" style="stop-color:#EC7255"/>
			<stop  offset="1" style="stop-color:#ED7C5D"/>
		</linearGradient>
		<path fill="url(#SVGID_13_)" stroke="url(#SVGID_14_)" stroke-miterlimit="10" d="M52.659,22.886
			c4.141,3.458,5.705,8.786,1.031,11.393c-3.161,1.765-7.629,0.97-11.228-2.037c-1.083-0.905-1.907-1.848-2.493-2.976
			c-0.21-0.368-0.069-0.824,0.343-1.054c0.55-0.307,1.388-0.182,1.813,0.175c0.154,0.129,0.225,0.251,0.295,0.374
			c0.306,0.638,1.251,1.62,2.064,2.299c2.012,1.68,5.334,3.116,7.671,1.811c3.299-1.841,1.73-6.087-1.559-8.834
			c-1.548-1.293-4.37-2.629-6.569-1.402c-1.741,0.972-1.099,2.338-0.169,3.114c1.547,1.292,2.922,0.526,3.701,0.091
			c0.595-0.333,1.44-0.265,1.904,0.123c0.232,0.194,0.76,0.762-0.385,1.401c-2.658,1.483-5.502,1.021-7.282-0.464
			c-1.857-1.552-2.234-4.038,0.698-5.673C45.519,19.538,49.564,20.299,52.659,22.886z"/>
		
			<linearGradient id="SVGID_15_" gradientUnits="userSpaceOnUse" x1="134.2529" y1="34.9863" x2="24.8053" y2="21.1825" gradientTransform="matrix(0.9991 0.0417 -0.0417 0.9991 1.3525 -3.2715)">
			<stop  offset="0" style="stop-color:#E29699"/>
			<stop  offset="1" style="stop-color:#E50012"/>
		</linearGradient>
		<linearGradient id="SVGID_16_" gradientUnits="userSpaceOnUse" x1="57.293" y1="26.3828" x2="79.6157" y2="26.3828">
			<stop  offset="0" style="stop-color:#E61F19"/>
			<stop  offset="0.1803" style="stop-color:#E6241D"/>
			<stop  offset="0.4079" style="stop-color:#E83428"/>
			<stop  offset="0.661" style="stop-color:#EA4E3B"/>
			<stop  offset="0.9307" style="stop-color:#EC7255"/>
			<stop  offset="1" style="stop-color:#ED7C5D"/>
		</linearGradient>
		<path fill="url(#SVGID_15_)" stroke="url(#SVGID_16_)" stroke-miterlimit="10" d="M71.984,17.029
			c3.663,4.993,2.374,8.658-1.255,9.854c-3.203,1.057-5.904-0.367-6.287-0.889c-0.355-0.484-0.068-0.996,0.573-1.206
			c0.427-0.142,0.964-0.133,1.369,0.058c0.756,0.398,1.809,0.93,3.197,0.473c2.456-0.81,2.872-3.584,0.001-7.498
			c-0.875-1.192-3.483-3.665-6.046-2.82c-4.27,1.408-4.119,8.301,1.108,15.787c5.498-1.813,11.212,0.283,13.505,3.414
			c1.855,2.533,0.917,4.324-1.748,5.204c-4.215,1.391-9.323-1.415-12.739-5.981c-1.037,0.667-1.396,1.803-1.118,2.452
			c0.11,0.241-0.233,0.586-0.713,0.745c-0.641,0.21-1.207-0.02-1.508-0.429c-0.629-0.856-0.389-2.88,2.164-4.369
			c-6.317-8.793-6.157-16.435-0.126-18.424C66.043,12.185,69.66,13.861,71.984,17.029z M75.777,35.03
			c-1.722-2.348-5.983-4.09-9.986-2.678c3.444,4.603,7.489,6.231,9.463,5.58C76.802,37.423,76.787,36.408,75.777,35.03z"/>
		
			<linearGradient id="SVGID_17_" gradientUnits="userSpaceOnUse" x1="136.0313" y1="28.4028" x2="26.0615" y2="14.5332" gradientTransform="matrix(0.9991 0.0417 -0.0417 0.9991 1.3525 -3.2715)">
			<stop  offset="0" style="stop-color:#E29699"/>
			<stop  offset="1" style="stop-color:#E50012"/>
		</linearGradient>
		<linearGradient id="SVGID_18_" gradientUnits="userSpaceOnUse" x1="73.9297" y1="22.458" x2="93.542" y2="22.458">
			<stop  offset="0" style="stop-color:#E61F19"/>
			<stop  offset="0.1803" style="stop-color:#E6241D"/>
			<stop  offset="0.4079" style="stop-color:#E83428"/>
			<stop  offset="0.661" style="stop-color:#EA4E3B"/>
			<stop  offset="0.9307" style="stop-color:#EC7255"/>
			<stop  offset="1" style="stop-color:#ED7C5D"/>
		</linearGradient>
		<path fill="url(#SVGID_17_)" stroke="url(#SVGID_18_)" stroke-miterlimit="10" d="M92.397,13.836
			c1.895,5.406-0.611,8.735-4.568,9.309c-3.491,0.505-5.651-1.301-5.848-1.866c-0.183-0.524,0.271-0.972,0.97-1.072
			c0.465-0.068,0.987,0.026,1.319,0.275c0.604,0.505,1.455,1.188,2.967,0.969c2.677-0.388,4.025-2.999,2.543-7.234
			c-0.451-1.292-2.166-4.094-4.958-3.689c-4.655,0.674-6.844,7.349-4.268,15.41c5.992-0.868,10.871,2.07,12.057,5.459
			c0.962,2.743-0.567,4.32-3.477,4.741c-4.596,0.666-8.641-2.86-10.435-7.812c-1.24,0.476-1.977,1.515-1.925,2.186
			c0.026,0.25-0.427,0.528-0.951,0.604c-0.699,0.101-1.176-0.211-1.332-0.655c-0.325-0.928,0.597-2.841,3.601-3.87
			c-3.203-9.496-0.452-16.845,6.122-17.796C88.229,8.21,91.197,10.408,92.397,13.836z M90.005,31.814
			c-0.889-2.541-4.466-4.905-8.86-4.183c1.808,4.993,5.213,7.212,7.365,6.901C90.198,34.287,90.528,33.307,90.005,31.814z"/>
		
			<linearGradient id="SVGID_19_" gradientUnits="userSpaceOnUse" x1="140.7588" y1="16.7065" x2="26.6684" y2="2.3172" gradientTransform="matrix(0.9991 0.0417 -0.0417 0.9991 1.3525 -3.2715)">
			<stop  offset="0" style="stop-color:#E29699"/>
			<stop  offset="1" style="stop-color:#E50012"/>
		</linearGradient>
		<linearGradient id="SVGID_20_" gradientUnits="userSpaceOnUse" x1="93.4336" y1="11.6924" x2="108.1387" y2="11.6924">
			<stop  offset="0" style="stop-color:#E61F19"/>
			<stop  offset="0.1803" style="stop-color:#E6241D"/>
			<stop  offset="0.4079" style="stop-color:#E83428"/>
			<stop  offset="0.661" style="stop-color:#EA4E3B"/>
			<stop  offset="0.9307" style="stop-color:#EC7255"/>
			<stop  offset="1" style="stop-color:#ED7C5D"/>
		</linearGradient>
		<path fill="url(#SVGID_19_)" stroke="url(#SVGID_20_)" stroke-miterlimit="10" d="M103.227,2.598l-2.264,1.226l3.829,1.494
			l-4.482-0.359l-1.423,2.316l-0.207-2.39l-3.008-0.072l2.801-1.243l-0.511-1.884l1.946,1.304L103.227,2.598z M101.174,8.94
			c0.004,0.041,0.015,0.124-0.036,0.208c-0.749,2.998-1.289,8.384-1.211,12.306c-0.004,0.497-0.501,0.883-1.219,0.905
			c-0.777,0.024-1.421-0.37-1.481-0.905c-0.058-0.535,0.039-7.726,1.287-12.679c0.065-0.498,0.81-0.81,1.541-0.708
			C100.667,8.17,101.129,8.528,101.174,8.94z"/>
		
			<linearGradient id="SVGID_21_" gradientUnits="userSpaceOnUse" x1="140.0879" y1="17.2915" x2="26.2088" y2="2.9288" gradientTransform="matrix(0.9991 0.0417 -0.0417 0.9991 1.3525 -3.2715)">
			<stop  offset="0" style="stop-color:#E29699"/>
			<stop  offset="1" style="stop-color:#E50012"/>
		</linearGradient>
		<linearGradient id="SVGID_22_" gradientUnits="userSpaceOnUse" x1="104.6523" y1="15.1016" x2="122.7842" y2="15.1016">
			<stop  offset="0" style="stop-color:#E61F19"/>
			<stop  offset="0.1803" style="stop-color:#E6241D"/>
			<stop  offset="0.4079" style="stop-color:#E83428"/>
			<stop  offset="0.661" style="stop-color:#EA4E3B"/>
			<stop  offset="0.9307" style="stop-color:#EC7255"/>
			<stop  offset="1" style="stop-color:#ED7C5D"/>
		</linearGradient>
		<path fill="url(#SVGID_21_)" stroke="url(#SVGID_22_)" stroke-miterlimit="10" d="M122.23,14.379
			c-0.286,2.87-1.568,6.043-2.125,7.409c-0.261,0.808-1.218,0.742-1.399,0.729c-0.777-0.054-1.333-0.505-1.279-1.038
			c0.003-0.042,0.008-0.082,0.074-0.16c0.622-1.402,1.771-4.46,2.037-7.126c0.217-2.173-0.225-3.772-1.78-3.88
			c-3.232-0.223-7.523,4.146-10.112,10.779c-0.162,0.402-0.67,0.655-1.328,0.61c-0.778-0.054-1.215-0.497-1.161-1.03
			c0.049-0.491,1.425-3.411,1.729-4.051c0.844-1.799,1.563-3.566,1.762-4.956c0.063-1.234-0.108-1.948-0.832-2.535
			c-0.159-0.217-0.259-0.431-0.233-0.677c0.046-0.45,0.685-0.819,1.401-0.77c1.197,0.083,2.661,1.711,2.177,4.155
			c1.869-2.431,4.333-3.582,7.026-3.396C119.562,8.539,122.734,9.335,122.23,14.379z"/>
		
			<linearGradient id="SVGID_23_" gradientUnits="userSpaceOnUse" x1="139.4131" y1="22.5732" x2="21.2536" y2="7.6707" gradientTransform="matrix(0.9991 0.0417 -0.0417 0.9991 1.3525 -3.2715)">
			<stop  offset="0" style="stop-color:#E29699"/>
			<stop  offset="1" style="stop-color:#E50012"/>
		</linearGradient>
		<linearGradient id="SVGID_24_" gradientUnits="userSpaceOnUse" x1="115.1484" y1="23.6787" x2="143.4844" y2="23.6787">
			<stop  offset="0" style="stop-color:#E61F19"/>
			<stop  offset="0.1803" style="stop-color:#E6241D"/>
			<stop  offset="0.4079" style="stop-color:#E83428"/>
			<stop  offset="0.661" style="stop-color:#EA4E3B"/>
			<stop  offset="0.9307" style="stop-color:#EC7255"/>
			<stop  offset="1" style="stop-color:#ED7C5D"/>
		</linearGradient>
		<path fill="url(#SVGID_23_)" stroke="url(#SVGID_24_)" stroke-miterlimit="10" d="M128.516,18.766
			c-0.443,1.315-0.326,2.435,0.406,3.201c0.63,0.706,1.788,1.125,3.028,1.308c-0.233-0.592-0.152-1.38,0.05-1.978
			c0.621-1.833,2.976-3.478,5.723-2.982c2.103,0.38,2.926,1.796,2.427,3.271c-0.498,1.474-2.311,2.795-5.205,3.287
			c0.319,0.523,0.71,1.017,1.084,1.38c1.434,1.442,2.193,3.228,1.641,4.861c-1.498,4.422-8.478,5.994-14.496,4.907
			c-5.318-0.96-8.361-3.328-7.322-6.395c0.836-2.47,4.289-3.875,7.795-3.242c2.104,0.38,3.366,1.411,3.029,2.407
			c-0.163,0.478-0.796,0.702-1.438,0.585c-0.293-0.052-0.791-0.227-0.899-0.458c-0.26-0.513-0.908-0.799-1.376-0.883
			c-1.987-0.358-3.955,0.512-4.48,2.065c-0.688,2.032,1.446,3.601,5.245,4.287c4.148,0.749,10.086-0.123,11.313-3.75
			c0.406-1.194-0.09-2.298-1.153-3.547c-0.767-0.857-1.129-1.431-1.497-2.173c-0.248-0.003-0.555-0.015-0.788-0.058
			c-0.305-0.013-0.597-0.065-0.832-0.108c-3.915-0.707-6-3.155-4.881-6.461c1.416-4.183,6.908-8.137,12.52-7.124
			c3.974,0.717,5.289,3.237,4.224,6.385c-0.175,0.518-0.894,0.811-1.653,0.673c-0.701-0.126-1.034-0.608-0.859-1.127
			c0.419-1.234,0.481-3.802-2.265-4.297C133.879,12.083,129.622,15.499,128.516,18.766z M134.35,23.328
			c1.696-0.243,3.034-1.27,3.345-2.186c0.149-0.438,0.104-1.039-0.654-1.175c-0.936-0.168-2.221,0.698-2.6,1.813
			C134.293,22.218,134.22,22.796,134.35,23.328z"/>
	</g>
</g>
</svg>
