<?xml version="1.0" encoding="utf-8"?>
<!-- Generator: Adobe Illustrator 16.0.0, SVG Export Plug-In . SVG Version: 6.00 Build 0)  -->
<!DOCTYPE svg PUBLIC "-//W3C//DTD SVG 1.1//EN" "http://www.w3.org/Graphics/SVG/1.1/DTD/svg11.dtd">
<svg version="1.1" xmlns="http://www.w3.org/2000/svg" xmlns:xlink="http://www.w3.org/1999/xlink" x="0px" y="0px" width="200px"
	 height="150px" viewBox="0 0 200 150" enable-background="new 0 0 200 150" xml:space="preserve">
<g id="圖層_2">
	<path fill="#FFFFFF" d="M140.382,103.776l9.105,16.57l10.389-23.383l-13.045-22.722l-1.688,3.771
		c-0.2-0.548-0.45-1.124-0.775-1.768c-1.03-10.662-1.851-14.836-2.37-16.606l0.029-0.744l1.172-0.879l-0.308-12.976
		c0.886-10.474-1.266-13.456-3.647-14.379c-0.763-0.484-1.896-0.989-3.298-0.989c-3.915,0-6.373,3.26-7.307,9.689l-0.023,0.197
		c-0.002,0.021-0.078,0.825-0.193,1.985c-0.896-1.167-2.077-2.094-3.637-2.487c-0.625-0.174-1.346-0.55-1.779-0.895
		c0.635-1.301,1.743-3.792,1.929-5.688c0.011-0.105,0.029-0.235,0.049-0.386c0.249-1.893,0.768-5.83-1.762-8.715
		c-1.008-1.149-2.877-2.518-6.063-2.518c-0.607,0-1.253,0.05-1.921,0.15c-0.939,0.086-2.771,0.488-4.387,2.221
		c-1.878,2.013-2.703,5.035-2.453,8.985c0.003,0.74,0.08,2.646,0.709,4.669c-0.446,0.294-0.963,0.583-1.539,0.819
		c-0.013,0-0.025,0-0.038,0c-5.771,0-6.699,8.086-6.998,10.691l-0.538,4.199c-1.815,0.476-3.205,1.696-4.056,3.078
		c-1.854-2.665-4.933-4.416-8.417-4.416c-5.653,0-10.252,4.599-10.252,10.252c0,1.953,0.559,3.773,1.51,5.328
		c-1.232,0.68-2.163,1.569-2.767,2.444l-5.054,5.427H47.841c-5.323,0-6.706,3.049-7.053,4.357c-0.481,1.813,0.063,3.44,0.537,4.403
		c0.669,2.745,3.826,15.702,4.633,19.256c0.482,2.121,1.344,3.521,2.301,4.44c-0.243,0.607-0.38,1.28-0.38,2.019
		c0,1.557,0.723,3.399,2.63,4.551c-0.5,1.154-0.774,2.404-0.774,3.707c0,5.852,5.501,10.611,12.262,10.611
		c6.763,0,12.265-4.76,12.265-10.611c0-0.899-0.13-1.772-0.375-2.607h5.015c-0.245,0.835-0.375,1.708-0.375,2.607
		c0,5.852,5.501,10.611,12.262,10.611s12.262-4.76,12.262-10.611c0-1.223-0.241-2.397-0.684-3.492
		c0.874-0.43,1.511-0.957,1.962-1.442c0.438-0.472,0.765-0.959,1.006-1.434c0.327,2.164,0.594,3.37,0.815,4.101
		c-0.02,0.088-0.041,0.177-0.062,0.248l-0.709,2.428l-0.051,0.192c-0.152,0.639-0.821,3.956,0.983,6.567
		c1.01,1.46,2.582,2.394,4.434,2.629c0.293,0.037,0.572,0.054,0.839,0.054c0.459,0,0.907-0.051,1.339-0.147
		c1.207,1.02,2.964,1.836,5.308,1.985c0.226,0.014,0.445,0.021,0.658,0.021c3.791,0,5.72-2.093,6.261-4.051
		c0.218-0.788,0.607-3.171-1.679-5.457v-0.05l1.708-7.724c0.498-1.425,2.118-6.778,1.104-13.653l0.135-2.577
		c0.534,0.279,1.036,0.559,1.449,0.806c0.274,1.588,0.555,2.606,0.816,3.292c0.368,4.188,0.791,13.983-0.907,18.808l-0.115,0.328
		l-0.106,0.642c-1.075,1.288-1.808,3.006-1.4,4.881c0.274,1.264,1.293,3.51,5.038,4.356l0.112,0.025l0.463,0.074h0.331
		c0.411,0,3.517-0.121,4.478-3.718l2.214,0.247l0.692-5.193c0.679-1.585,0.831-3.798-0.514-5.975c0.212-2.211,0.55-6.169,0.651-9.98
		C139.902,104.108,140.151,103.952,140.382,103.776z M139.709,90.156l-0.002-0.005l-0.23,0.068l-0.059-0.075l-0.192,0.15
		l-0.521,0.156l-0.051-2.146c0.423,0.277,0.91,0.487,1.47,0.61l0.128,0.028L139.709,90.156z"/>
</g>
<g id="圖層_6">
	<g>
		<g>
			<path fill="none" d="M103.839,74.124c-1.249-1.656-1.18-7.199-0.962-11.049l-1.145,4.682c0,0,0,2.463-2.841,3.789
				c-2.841,1.326-5.209,2.465-5.209,2.465v4.692h11.21c-0.498-0.537-1.218-2.299-1.218-2.299L103.839,74.124z"/>
			<polygon fill="none" points="78.871,101.468 88.234,101.468 90.254,90.081 78.871,90.081 			"/>
			<polygon fill="none" points="65.466,101.468 74.28,101.468 74.28,90.081 63.262,90.081 			"/>
			<polygon fill="none" points="103.105,86.598 104.393,82.005 49.308,82.005 50.41,86.598 			"/>
			<path fill="none" d="M90.788,120.193c2.521,0,4.405-1.454,4.405-2.756c0-1.299-1.884-2.752-4.405-2.752
				c-2.523,0-4.407,1.453-4.407,2.752C86.381,118.739,88.265,120.193,90.788,120.193z"/>
			<path fill="none" d="M61.997,120.193c2.522,0,4.409-1.454,4.409-2.756c0-1.299-1.887-2.752-4.409-2.752s-4.406,1.453-4.406,2.752
				C57.59,118.739,59.474,120.193,61.997,120.193z"/>
			<polygon fill="none" points="51.512,90.081 54.083,101.468 61.06,101.468 58.856,90.081 			"/>
			<polygon fill="none" points="92.274,101.468 99.249,101.468 102.003,90.081 94.478,90.081 			"/>
			<path fill="none" d="M123.913,60.858c0,0,0,0,1.317-1.121c1.314-1.121,0-2.056,0-2.056l-1.317-2.428
				C122.104,61.418,123.913,60.858,123.913,60.858z"/>
			<path fill="none" d="M107.131,65.715c-0.783,1.852-0.454,3.802-0.197,4.778c0.096-0.14,0.207-0.275,0.342-0.404
				c0.211-1.532,0.609-4.356,0.844-5.683c0.329-1.869,0-7.473,0-7.473C106.966,57.495,107.131,65.715,107.131,65.715z"/>
			<path fill="none" d="M138.626,73.217c-0.131-0.262-1.312-5.635-1.703-7.992c-0.394-2.359-1.312-0.394-1.312-0.394l0.132,2.751
				c3.144,5.766,0.786,10.484,0.786,10.484c-0.131,0.718-0.247,1.39-0.354,2.021h3.364c-0.176-1.396-0.261-2.545-0.261-2.545
				S138.756,73.479,138.626,73.217z"/>
			<path fill="#EE7C5D" d="M140.46,77.411c0,0-1.44-15.201-2.489-17.165l0.133-3.407l1.047-0.786l-0.264-11.137
				c0,0,0.896-10.204-1.439-10.614c0,0-3.537-3.406-4.85,5.635c0,0-0.522,5.503-0.916,8.779l0.785,0.655
				c0,0-0.523,0.917-0.785,3.669c0,0-2.096,6.42,0,9.171c0,0,0.364,1.441-0.932,3.669c0,0,0.014,4.849-0.902,5.504
				c0,0,0.786,3.537-1.181,3.668v2.36h-1.047l-1.627,2.676h10.185c0.104-0.631,0.223-1.303,0.352-2.02c0,0,2.357-4.719-0.785-10.485
				l-0.133-2.751c0,0,0.918-1.966,1.313,0.394c0.393,2.357,1.572,7.73,1.703,7.992c0.13,0.262,0.654,4.325,0.654,4.325
				s0.085,1.15,0.261,2.545h2.067C141.45,79.45,141.137,78.65,140.46,77.411z"/>
			<path fill="#E71F19" d="M141.9,82.521c-0.15-0.987-0.073-1.559-0.291-2.436h-2.068c0.264,2.104,0.734,4.768,1.443,4.924
				C140.984,85.011,142.164,84.227,141.9,82.521z"/>
			<path fill="#E71F19" d="M123.559,84.093c0,0-1.967,5.373,1.439,6.554c3.408,1.178,6.552,3.405,6.552,3.405
				s0.524,3.933,1.048,4.587c0,0,1.442,14.153-1.048,21.229l-0.262,1.571c0,0-3.274,2.488,0.786,3.406c0,0,0.785,0.131,0.785-2.098
				l1.181-2.357c0,0,1.44-2.793,0.785,4.457l0.786-5.899c0,0,1.264-1.554-0.786-3.537c0,0,1.442-13.234,0.524-18.084l1.311,0.396
				c0,0,1.703,7.6,1.966-2.099l-2.358-3.015l-0.393-1.311l2.751-0.131c0,0-1.312,0-3.146-1.703c0,0-0.799-0.459,0.695-9.379h-10.184
				L123.559,84.093z"/>
			<polygon fill="#E71F19" points="141.115,96.805 149.107,111.35 155.396,97.195 147.273,83.046 			"/>
			<path fill="#EE7C5D" d="M123.421,75.803v-9.154l5.267-4.111c0,0,3.127-1.119,0-7.659l-1.48-4.484c0,0-0.495-6.727-3.457-7.474
				c0,0-3.619-0.934-4.771-3.55c0,0-0.658-0.374,0.164-2.429c0,0,1.646-3.176,1.812-4.858s1.646-8.221-5.267-7.1
				c0,0-3.783,0-3.289,7.1c0,0-0.045,3.736,1.623,5.792c0,0-2.281,2.804-6.065,3.924c0,0-2.47-1.495-3.456,7.1l-1.081,8.439
				c-0.274-0.479-0.729-0.879-1.495-0.948c-2.083-0.19-2.841,1.894-2.841,1.894l-2.463,9.473l-4.738,1.895h-8.335
				c-3.221,0-4.359,2.084-4.359,2.084l-6.489,6.967H47.841c-2.211,0-2.994,0.655-3.187,1.385h78.573l0.193-3.685L123.421,75.803
				L123.421,75.803z M93.683,78.702V74.01c0,0,2.368-1.139,5.209-2.465c2.842-1.326,2.842-3.789,2.842-3.789l1.144-4.682
				c-0.218,3.85-0.287,9.393,0.962,11.049l-0.163,2.279c0,0,0.72,1.763,1.218,2.3H93.683z M108.118,64.407
				c-0.233,1.326-0.632,4.15-0.845,5.683c-0.133,0.129-0.246,0.265-0.34,0.404c-0.258-0.977-0.588-2.927,0.196-4.778
				c0,0-0.165-8.221,0.987-8.781C108.118,56.934,108.447,62.538,108.118,64.407z M123.913,55.253l1.317,2.428
				c0,0,1.314,0.935,0,2.056c-1.317,1.121-1.317,1.121-1.317,1.121S122.104,61.418,123.913,55.253z"/>
			<path fill="#E71F19" d="M45.086,82.005c0,0,3.855,15.791,4.773,19.83c0.917,4.037,3.489,2.938,3.489,2.938h45.167l-0.919,2.387
				H54.45c0,0-2.571,0.367-2.571,2.02c0,1.653,2.938,1.65,2.938,1.65s2.891,0,7.18,0c7.936,0,20.658,0,28.792,0
				c3.692,0,6.44,0,7.36,0c4.039,0,3.854-2.57,3.854-2.57l5.71-23.582c0.254,6.406,0.563,16.098,0.241,18.781
				c0,0,0.885,5.416,1.265,6.539c0,0,0.545,3.738,0.874,4.299s-0.165,2.242-0.165,2.242l-0.709,2.428c0,0-0.937,3.922,2.026,4.299
				c2.962,0.373,2.467-4.113,2.467-4.113l0.167-14.946l0.165-6.353l0.163-5.229l0.822-8.224c0,0,0.656,4.3,0.656,7.103
				c0,2.804,0,9.901,0,9.901v13.265l-0.822,3.554v5.065c0,0,0.658,1.657,3.621,1.846c2.961,0.188,4.113-1.682,0.986-3.551v-2.431
				l1.858-8.405c0,0,2.091-5.229,0.938-12.332l0.959-18.326H44.654C44.414,80.991,45.086,82.005,45.086,82.005z M54.083,101.468
				l-2.571-11.387h7.345l2.203,11.387H54.083z M74.28,101.468h-8.813l-2.204-11.387H74.28V101.468z M88.234,101.468H78.87V90.081
				h11.383L88.234,101.468z M99.249,101.468h-6.975l2.203-11.387h7.525L99.249,101.468z M104.393,82.005l-1.287,4.593H50.41
				l-1.102-4.593H104.393z"/>
			<circle fill="#EE7C5D" cx="87.521" cy="61.505" r="6.252"/>
			<path fill="#E71F19" d="M53.735,117.438c0,3.65,3.699,6.611,8.262,6.611c4.565,0,8.265-2.961,8.265-6.611
				c0-3.647-3.699-6.608-8.265-6.608C57.434,110.829,53.735,113.79,53.735,117.438z M61.997,114.688
				c2.522,0,4.409,1.453,4.409,2.752c0,1.301-1.887,2.756-4.409,2.756s-4.406-1.455-4.406-2.756
				C57.59,116.141,59.474,114.688,61.997,114.688z"/>
			<path fill="#E71F19" d="M82.526,117.438c0,3.65,3.697,6.611,8.262,6.611c4.562,0,8.262-2.961,8.262-6.611
				c0-3.647-3.7-6.608-8.262-6.608C86.224,110.829,82.526,113.79,82.526,117.438z M90.788,114.688c2.521,0,4.405,1.453,4.405,2.752
				c0,1.301-1.884,2.756-4.405,2.756c-2.523,0-4.407-1.455-4.407-2.756C86.381,116.141,88.265,114.688,90.788,114.688z"/>
		</g>
	</g>
</g>
</svg>
