<?xml version="1.0" encoding="utf-8"?>
<!-- Generator: Adobe Illustrator 16.0.0, SVG Export Plug-In . SVG Version: 6.00 Build 0)  -->
<!DOCTYPE svg PUBLIC "-//W3C//DTD SVG 1.1//EN" "http://www.w3.org/Graphics/SVG/1.1/DTD/svg11.dtd">
<svg version="1.1" id="圖層_1" xmlns="http://www.w3.org/2000/svg" xmlns:xlink="http://www.w3.org/1999/xlink" x="0px" y="0px"
	 width="500px" height="200px" viewBox="0 0 500 200" enable-background="new 0 0 500 200" xml:space="preserve">
<g>
	<path fill="#BE3237" d="M399.792,199.385c-17.669,0-34.855-4.811-49.933-13.945c-15.072,9.135-32.258,13.945-49.926,13.945
		c-17.678,0-34.856-4.811-49.934-13.946c-15.078,9.136-32.259,13.946-49.929,13.946c-17.673,0-34.855-4.811-49.933-13.946
		c-15.074,9.136-32.256,13.946-49.93,13.946C46.333,199.385,2.5,154.801,2.5,100S46.333,0.615,100.208,0.615
		c17.673,0,34.855,4.811,49.93,13.946c15.078-9.135,32.26-13.946,49.933-13.946c17.669,0,34.851,4.811,49.929,13.946
		c15.077-9.135,32.257-13.946,49.934-13.946c17.669,0,34.854,4.811,49.926,13.946c15.077-9.135,32.263-13.946,49.933-13.946
		c53.879,0,97.708,44.584,97.708,99.385S453.671,199.385,399.792,199.385z"/>
	<path fill="#BE3237" stroke="#FFFFFF" stroke-width="5" stroke-miterlimit="10" d="M399.792,6.615
		c-18.415,0-35.555,5.518-49.933,15.011c-14.371-9.494-31.512-15.011-49.926-15.011c-18.415,0-35.563,5.518-49.934,15.011
		c-14.374-9.494-31.519-15.011-49.929-15.011c-18.415,0-35.559,5.518-49.933,15.011c-14.371-9.494-31.515-15.011-49.93-15.011
		C49.504,6.615,8.4,48.425,8.4,100s41.104,93.385,91.808,93.385c18.415,0,35.559-5.518,49.93-15.012
		c14.375,9.494,31.519,15.012,49.933,15.012c18.41,0,35.555-5.518,49.929-15.012c14.37,9.494,31.519,15.012,49.934,15.012
		c18.414,0,35.555-5.518,49.926-15.011c14.378,9.493,31.518,15.011,49.933,15.011c50.703,0,91.808-41.81,91.808-93.385
		S450.495,6.615,399.792,6.615z"/>
</g>
<text transform="matrix(1 0 0 1 40 133.0176)" fill="#FFFFFF" stroke="#FFFFFF" stroke-miterlimit="10" font-family="'MicrosoftJhengHeiBold'" font-size="105">暢銷熱賣</text>
</svg>
